<svg xmlns="http://www.w3.org/2000/svg" viewBox="0 0 200 240" width="100%" height="100%">
  <defs>
    <linearGradient id="topCapGrad" x1="0%" y1="0%" x2="0%" y2="100%">
      <stop offset="0%" stop-color="#73A3E6" />
      <stop offset="100%" stop-color="#4B85D6" />
    </linearGradient>

    <linearGradient id="midSegGrad" x1="0%" y1="0%" x2="0%" y2="100%">
      <stop offset="0%" stop-color="#8BB4FA" />
      <stop offset="100%" stop-color="#679BF2" />
    </linearGradient>

    <linearGradient id="botSegGrad" x1="0%" y1="0%" x2="0%" y2="100%">
      <stop offset="0%" stop-color="#A5C7FF" />
      <stop offset="100%" stop-color="#80A9F1" />
    </linearGradient>
  </defs>

  <path d="M 30,130 L 30,185 C 30,210 170,210 170,185 L 170,130 Z" fill="url(#botSegGrad)" />
  <ellipse cx="100" cy="130" rx="70" ry="20" fill="#A5C7FF" />

  <path d="M 30,75 L 30,130 C 30,155 170,155 170,130 L 170,75 Z" fill="url(#midSegGrad)" />
  <ellipse cx="100" cy="75" rx="70" ry="20" fill="#8BB4FA" />

  <path d="M 30,20 L 30,75 C 30,100 170,100 170,75 L 170,20 Z" fill="url(#topCapGrad)" />
  <ellipse cx="100" cy="20" rx="70" ry="20" fill="#91BDFB" />

  <text x="100" y="132" 
        font-family="Arial, Helvetica, sans-serif" 
        font-weight="900" 
        font-size="36" 
        fill="#000000" 
        text-anchor="middle" 
        letter-spacing="-0.5">SQL</text>
</svg>
